HIERARCHY
ROOT Hips
{
	OFFSET -3.958830 18.904000 13.208200
	CHANNELS 6 Xposition Yposition Zposition Zrotation Yrotation Xrotation 
	JOINT LHipJoint
	{
		OFFSET 0.000000 0.000000 0.000000
		CHANNELS 3 Zrotation Yrotation Xrotation
		JOINT LeftUpLeg
		{
			OFFSET 1.800000 -1.400000 0.085000
			CHANNELS 3 Zrotation Yrotation Xrotation
			JOINT LeftLeg
			{
				OFFSET 2.215000 -6.000000 0.000000
				CHANNELS 3 Zrotation Yrotation Xrotation
				JOINT LeftFoot
				{
					OFFSET 2.500000 -6.900000 0.000000
					CHANNELS 3 Zrotation Yrotation Xrotation
					JOINT LeftToeBase
					{
						OFFSET 0.200000 -0.500000 1.950000
						CHANNELS 3 Zrotation Yrotation Xrotation
						End Site
						{
							OFFSET 0.000000 0.000000 0.000000
						}
					}
				}
			}
		}
	}
	JOINT RHipJoint
	{
		OFFSET 0.000000 0.000000 0.000000
		CHANNELS 3 Zrotation Yrotation Xrotation
		JOINT RightUpLeg
		{
			OFFSET -1.800000 -1.400000 0.085000
			CHANNELS 3 Zrotation Yrotation Xrotation
			JOINT RightLeg
			{
				OFFSET -2.215000 -6.000000 0.000000
				CHANNELS 3 Zrotation Yrotation Xrotation
				JOINT RightFoot
				{
					OFFSET -2.500000 -6.900000 0.000000
					CHANNELS 3 Zrotation Yrotation Xrotation
					JOINT RightToeBase
					{
						OFFSET -0.200000 -0.500000 1.950000
						CHANNELS 3 Zrotation Yrotation Xrotation
						End Site
						{
							OFFSET 0.000000 0.000000 0.000000
						}
					}
				}
			}
		}
	}
	JOINT LowerBack
	{
		OFFSET 0.000000 0.000000 0.000000
		CHANNELS 3 Zrotation Yrotation Xrotation
		JOINT Spine
		{
			OFFSET -0.087000 1.940000 -0.288900
			CHANNELS 3 Zrotation Yrotation Xrotation
			JOINT Spine1
			{
				OFFSET 0.000000 1.950000 0.060000
				CHANNELS 3 Zrotation Yrotation Xrotation
				JOINT Neck
				{
					OFFSET 0.000000 0.000000 0.000000
					CHANNELS 3 Zrotation Yrotation Xrotation
					JOINT Neck1
					{
						OFFSET 0.000000 1.600000 0.340000
						CHANNELS 3 Zrotation Yrotation Xrotation
						JOINT Head
						{
							OFFSET 0.000000 1.667000 -0.240000
							CHANNELS 3 Zrotation Yrotation Xrotation
							End Site
							{
								OFFSET 0.000000 0.000000 0.000000
							}
						}
					}
				}
				JOINT LeftShoulder
				{
					OFFSET 0.000000 0.000000 0.000000
					CHANNELS 3 Zrotation Yrotation Xrotation
					JOINT LeftArm
					{
						OFFSET 2.700000 1.550000 -0.730000
						CHANNELS 3 Zrotation Yrotation Xrotation
						JOINT LeftForeArm
						{
							OFFSET 5.450000 0.000000 0.000000
							CHANNELS 3 Zrotation Yrotation Xrotation
							JOINT LeftHand
							{
								OFFSET 3.450000 0.000000 0.000000
								CHANNELS 3 Zrotation Yrotation Xrotation
								JOINT LeftHandIndex1
								{
									OFFSET 0.750000 0.000000 0.000000
									CHANNELS 3 Zrotation Yrotation Xrotation
									End Site
									{
										OFFSET 0.000000 0.000000 0.000000
									}
								}
							}
						}
					}
				}
				JOINT RightShoulder
				{
					OFFSET 0.000000 0.000000 0.000000
					CHANNELS 3 Zrotation Yrotation Xrotation
					JOINT RightArm
					{
						OFFSET -2.700000 1.550000 -0.730000
						CHANNELS 3 Zrotation Yrotation Xrotation
						JOINT RightForeArm
						{
							OFFSET -5.450000 0.000000 0.000000
							CHANNELS 3 Zrotation Yrotation Xrotation
							JOINT RightHand
							{
								OFFSET -3.450000 0.000000 0.000000
								CHANNELS 3 Zrotation Yrotation Xrotation
								JOINT RightHandIndex1
								{
									OFFSET -0.750000 0.000000 0.000000
									CHANNELS 3 Zrotation Yrotation Xrotation
									End Site
									{
										OFFSET 0.000000 0.000000 0.000000
									}
								}
							}
						}
					}
				}
			}
		}
	}
}
MOTION
Frames: 9
Frame Time: 0.016667
-0.523370 16.307290 -7.984890 -2.020631 5.684987 -5.186974 -14.847153 9.952978 5.377249 10.043530 -7.281188 -37.880920 -35.934036 16.233653 26.975375 0.600428 9.108634 1.395522 0.385940 0.407790 0.163420 18.906743 -10.559593 3.066164 11.002486 1.126745 -5.053036 11.253288 -7.811314 23.586020 -1.091770 -4.799142 2.411064 0.186510 0.402060 0.259170 -4.944114 2.193526 -9.189104 0.193188 1.810714 35.307932 -9.888828 11.680612 17.186449 -4.690075 -4.333606 -18.130860 -7.302285 -2.253868 36.171793 9.751140 -5.034610 -27.581280 -2.331909 -29.266915 9.983734 -4.807217 -3.090507 -6.963319 25.243047 6.658632 -2.198871 -4.174860 2.498088 0.761930 -0.194970 0.421760 0.252840 13.480345 38.428718 15.001424 46.209169 16.297551 -0.876335 -9.135484 1.549494 0.370681 2.476666 -1.120042 -0.173300 0.675550 0.079980 0.188790 
-0.522410 16.282160 -7.979450 -2.621358 6.022797 -5.747021 -14.837759 9.995331 5.292844 9.258550 -7.969904 -36.849127 -35.237299 15.821327 27.305272 0.609358 8.921818 1.449708 0.444030 0.482720 0.201720 18.913614 -10.567710 3.101181 11.616459 1.054489 -4.894685 11.071112 -7.964633 24.399932 -1.154578 -4.875267 2.382636 0.202850 0.342940 0.271630 -4.967195 2.170422 -9.148954 0.163410 0.945421 36.583701 -10.413505 10.731996 15.790962 -4.635740 -4.044901 -17.333083 -7.029641 -2.151209 35.927614 9.772800 -4.500200 -28.594530 -2.488570 -28.558589 10.003216 -5.213230 -3.374976 -6.645417 24.572423 7.297827 -1.965053 -4.115472 2.533332 0.774850 -0.227900 0.472630 0.273440 13.158349 36.944971 14.440474 48.072303 14.654108 -1.266623 -8.288918 1.892276 0.419452 2.485692 -1.135830 -0.130540 0.637000 0.023110 0.191360 
-0.546900 16.214530 -7.968920 -3.590280 5.373194 -6.374740 -14.828706 10.050461 5.154780 7.990891 -8.770168 -35.647155 -33.828495 15.432795 28.200977 0.656508 8.679661 1.511144 0.532750 0.595080 0.251940 18.931128 -10.542684 3.149388 12.663426 1.335709 -5.246356 10.791728 -8.338500 27.113904 -1.250615 -5.143431 2.253647 0.229350 0.251180 0.297190 -4.996827 2.098425 -9.052029 -0.714849 -0.027820 38.439219 -11.029396 9.491438 14.185694 -4.883157 -4.081324 -16.313002 -7.150473 -1.888418 33.300196 10.094530 -4.005050 -29.086280 -0.627155 -26.562589 10.133618 -8.429540 -3.373182 -5.823421 23.537698 7.098722 -1.686663 -3.982619 2.699212 0.743960 -0.276930 0.520610 0.296980 11.339794 34.209242 13.757707 50.208476 11.897122 -2.125033 -7.301445 1.656084 0.464015 2.559978 -1.221122 -0.043960 0.528070 -0.066840 0.212230 
-0.596350 16.126450 -7.950520 -4.785293 3.254693 -6.533067 -14.822431 9.994163 5.050885 7.886834 -9.046973 -35.067663 -32.964995 15.392540 28.911769 0.494655 8.780286 1.472837 0.518920 0.471810 0.313200 18.965174 -10.464320 3.249111 14.521599 2.256559 -6.302728 10.181888 -8.822866 31.458802 -1.305119 -5.581615 2.065018 0.222930 0.267930 0.265780 -5.036882 2.183828 -8.980777 -2.262300 -0.187958 41.388094 -11.068659 8.105114 9.643794 -5.966382 -3.721888 -14.287856 -5.948069 -1.711416 28.169349 10.781750 -3.648410 -29.803430 1.205963 -21.322243 8.509853 -12.510654 -5.783889 -4.167095 22.816820 6.284933 -1.546856 -3.914859 2.728246 0.824330 -0.288020 0.439780 0.248070 10.941682 27.628290 12.059931 51.326273 7.753010 -4.062019 -7.991809 1.919016 0.257939 2.559921 -1.198049 -0.158730 0.538190 -0.018220 0.121940 
-0.648150 16.026200 -7.946570 -4.857236 0.606808 -6.620821 -14.878853 10.119251 5.011661 7.210823 -9.430548 -35.220345 -30.831147 15.459553 30.677798 0.496262 8.789994 1.502654 0.457580 0.420710 0.283290 18.908227 -10.352567 3.320431 15.284585 3.211363 -7.660490 9.177320 -9.288124 36.477272 -1.373379 -6.128052 1.917763 0.197340 0.312260 0.255490 -4.869294 1.873583 -8.923975 -5.657802 1.005270 44.336148 -10.814604 6.191063 4.589931 -5.624164 -3.778553 -13.267207 -5.906335 -1.048611 25.125411 9.008320 -3.049490 -28.612130 2.727568 -16.025992 6.918278 -16.596754 -7.037477 -3.482187 24.132947 4.303764 -1.467298 -3.891061 2.737244 0.777480 -0.231570 0.399700 0.246220 8.291106 21.657877 10.508798 51.785618 4.366800 -5.398587 -8.317729 2.190073 0.140054 2.598759 -1.162705 -0.183150 0.542860 -0.013630 0.127150 
-0.682750 15.940040 -7.962620 -6.302568 -3.116817 -7.328290 -14.877208 10.089699 4.953523 8.355476 -8.986732 -35.150216 -30.047333 16.061158 32.302906 0.591316 9.097213 1.434628 0.402690 0.389190 0.250130 18.930256 -10.209221 3.488941 17.266982 4.412981 -8.339503 7.477028 -9.481930 41.975297 -1.493430 -6.808681 1.719761 0.180130 0.364680 0.267710 -4.907930 1.834641 -8.945982 -6.379576 0.744936 46.625299 -12.344471 5.594737 3.090137 -4.418444 -4.271642 -13.914683 -6.559747 -0.210065 23.102461 6.343680 -2.495560 -25.778550 4.137161 -14.400456 7.117611 -18.620102 -5.979256 -2.986186 22.854884 3.829114 -1.258730 -3.945294 2.722190 0.688290 -0.157960 0.365440 0.252590 4.649341 20.088993 10.475653 52.280164 1.390892 -7.024139 -10.301150 2.243254 0.057917 2.628576 -1.199235 -0.177310 0.537920 -0.012040 0.155740 
-0.738980 15.833910 -7.908810 -7.111439 -6.957497 -3.640551 -14.916103 9.711637 5.264832 10.458686 -8.900874 -39.076437 -31.947388 16.754678 31.620041 0.647262 9.374208 1.366362 0.392850 0.345370 0.221160 18.961006 -9.910273 3.630636 18.944930 6.352228 -12.078375 7.008032 -9.542980 46.195467 -1.524578 -7.276951 1.564908 0.175050 0.418720 0.267470 -4.952242 1.970241 -9.166003 -8.179104 1.215759 46.719485 -13.006854 1.906352 -6.792687 -3.621211 -5.282054 -11.934169 -7.826032 0.445844 19.560871 6.180050 -3.432540 -23.431640 5.305816 -5.514898 4.326966 -21.890435 -8.090125 -1.287178 22.614208 1.185629 -1.012759 -3.937151 2.788177 0.619230 -0.117680 0.273120 0.269550 2.134997 10.678879 7.588561 49.061418 -2.274656 -7.292947 -6.653396 2.650998 -0.156753 2.701843 -1.145308 -0.187540 0.501040 -0.009380 0.172930 
-0.777340 15.733550 -7.879820 -8.220964 -11.313575 -2.064031 -14.954371 9.488565 5.400905 12.530632 -8.088497 -40.446681 -34.246498 17.374828 30.405458 0.743150 9.699322 1.310457 0.354850 0.326790 0.129450 18.973583 -9.656294 3.746067 20.040055 7.481663 -12.742911 9.170660 -10.813030 47.969833 -1.591742 -7.830398 1.424972 0.195160 0.553530 0.294170 -5.004649 1.950267 -9.285007 -9.100825 1.265697 45.561428 -13.696430 0.668378 -8.868228 -2.843597 -6.302017 -11.938555 -9.344554 2.375985 17.482989 5.028910 -3.201950 -19.594440 6.046045 -3.000995 3.949361 -24.394764 -7.432908 -0.848443 22.614652 2.087597 -0.676484 -4.071183 2.825988 0.485660 0.002440 0.174790 0.311020 0.389915 8.493282 7.268377 41.528387 -3.370843 -5.846223 -1.940367 -1.440268 -0.278411 2.770686 -1.087868 -0.186900 0.519690 0.022920 0.228700 
-0.824310 15.666460 -7.841270 -8.472538 -17.033764 -0.798179 -14.986360 9.374071 5.518805 14.514149 -6.874812 -41.015667 -36.027344 17.944007 28.940080 0.875361 9.853273 1.289864 0.264330 0.251980 0.022480 18.953964 -9.562959 3.842153 20.677348 8.296355 -12.669278 8.982994 -10.928169 50.190211 -1.632564 -8.212561 1.338791 0.133420 0.614810 0.312480 -5.049917 2.093992 -9.397678 -12.166834 3.453958 46.043185 -11.759588 -0.861634 -15.529077 -1.815147 -7.155747 -11.849363 -10.993824 3.697474 16.691549 4.429360 -2.807000 -16.776180 7.362613 0.750402 3.531818 -27.926135 -6.746173 -0.445400 22.917780 1.051459 -0.368480 -4.111290 2.866717 0.396220 0.059240 0.122190 0.318210 -1.610625 4.681361 6.491658 35.237720 -7.306578 -6.513694 -1.515705 0.796302 -0.609278 2.797361 -1.021869 -0.162270 0.477970 0.054590 0.276870 
